<?xml version="1.0" standalone="no"?>
<!DOCTYPE svg PUBLIC "-//W3C//DTD SVG 20010904//EN"
 "http://www.w3.org/TR/2001/REC-SVG-20010904/DTD/svg10.dtd">
<svg version="1.0" xmlns="http://www.w3.org/2000/svg"
 width="610.000000pt" height="610.000000pt" viewBox="0 0 610.000000 610.000000"
 preserveAspectRatio="xMidYMid meet">
<metadata>
Created by potrace 1.14, written by Peter Selinger 2001-2017
</metadata>
<g transform="translate(0.000000,610.000000) scale(0.100000,-0.100000)"
fill="#000000" stroke="none">
<path d="M2710 5301 c-14 -8 -63 -16 -240 -42 -114 -16 -237 -66 -318 -128
-78 -59 -120 -90 -182 -131 -21 -14 -61 -44 -90 -68 -29 -23 -82 -60 -119 -82
-73 -43 -122 -88 -152 -138 -11 -18 -34 -39 -52 -47 -44 -18 -87 -53 -87 -71
0 -8 -4 -14 -9 -14 -5 0 -12 -8 -15 -18 -3 -10 -27 -34 -54 -54 -26 -20 -63
-52 -82 -70 -38 -37 -105 -88 -115 -88 -3 0 -16 -9 -28 -21 -12 -11 -35 -30
-51 -42 -72 -54 -86 -73 -86 -121 0 -38 -5 -50 -30 -73 -17 -14 -30 -32 -30
-38 0 -7 -12 -28 -28 -48 -83 -108 -132 -181 -132 -196 0 -9 -6 -25 -13 -36
-15 -23 -36 -88 -40 -126 -1 -15 -8 -33 -15 -41 -7 -8 -11 -26 -10 -40 1 -13
-4 -39 -11 -56 -11 -27 -11 -46 -1 -106 10 -57 10 -142 4 -363 -9 -295 -7
-494 5 -503 17 -12 20 -46 10 -108 -12 -72 -12 -76 -10 -197 2 -65 7 -88 28
-125 14 -25 32 -75 39 -112 13 -61 79 -226 110 -273 7 -11 28 -49 47 -84 46
-87 164 -204 247 -246 36 -18 79 -40 95 -49 17 -9 36 -16 43 -16 7 0 11 -4 8
-9 -6 -10 79 -41 277 -101 128 -39 181 -57 232 -80 115 -53 606 -155 1075
-224 58 -9 148 -23 200 -31 104 -17 596 -32 671 -21 49 7 191 84 250 135 20
17 39 31 43 31 13 0 112 65 124 82 7 10 17 18 22 18 5 0 36 18 69 40 33 22 64
40 70 40 5 0 11 4 13 8 6 17 100 82 109 77 5 -4 29 8 53 24 25 17 47 31 50 31
10 0 139 91 192 136 28 24 67 50 86 60 19 9 43 30 53 47 10 17 35 47 54 67 35
34 66 71 133 157 18 23 70 83 115 134 45 51 80 96 77 101 -3 5 -1 21 5 36 6
15 12 77 14 137 4 97 8 119 37 185 35 81 36 91 45 465 1 68 8 133 15 150 21
49 26 306 7 373 -23 85 -37 181 -37 259 0 71 -8 106 -55 228 -26 68 -34 93
-71 220 -22 73 -20 71 -41 54 -15 -13 -16 -12 -8 6 12 28 10 52 -7 112 -18 65
-40 98 -184 278 -13 17 -33 48 -45 71 -15 27 -46 57 -88 87 -36 25 -96 72
-132 104 -117 102 -197 155 -268 175 -141 40 -178 52 -236 74 -95 35 -147 46
-191 40 -44 -6 -151 16 -193 39 -14 8 -42 19 -61 24 -19 5 -66 19 -105 30 -38
12 -97 23 -130 27 -33 3 -73 10 -88 16 -15 6 -50 8 -77 5 -37 -5 -73 1 -152
24 -96 27 -112 29 -253 27 -82 -2 -181 0 -220 4 -38 4 -77 4 -85 -1z"/>
</g>
</svg>
